<svg xmlns="http://www.w3.org/2000/svg" viewBox="0 0 908.25 229.7"><defs><style>.cls-1{fill:#fff;}</style></defs><title>logo de empresa</title><g id="Capa_2" data-name="Capa 2"><g id="Capa_1-2" data-name="Capa 1"><path class="cls-1" d="M2.8,106.6l-1.05-.77a1.07,1.07,0,0,1-.29-1.72,342.88,342.88,0,0,0,18.76-31A242.54,242.54,0,0,0,35.15,40.19,113,113,0,0,0,40.31,23,85.56,85.56,0,0,0,42,14.35q.19-2.3.19-4.21a13.08,13.08,0,0,0-.19-4c-.13-.64-.26-1-.38-1l.19.19H42a4.08,4.08,0,0,0-1,.77,9.37,9.37,0,0,0-1.34,1.15,53.34,53.34,0,0,0-5.17,6.89Q30.74,20.48,26.15,30T18.69,46.51q-3.06,7.66-5.93,17Q6.63,82.87,5.48,98.37a62.06,62.06,0,0,0,1.15,17.42,6.65,6.65,0,0,0,.57,1.91,19.75,19.75,0,0,1,.57,2.11,15.24,15.24,0,0,0,1.72,3.25,8.28,8.28,0,0,0,2.49,2.3,6.63,6.63,0,0,0,3.64.57,15.52,15.52,0,0,0,7.66-3.06,35.55,35.55,0,0,0,6.7-5.93,74.23,74.23,0,0,0,10.91-14.16v-.19a1.23,1.23,0,0,1,1.82-.29,1.26,1.26,0,0,1,.48,1.82H43A125.51,125.51,0,0,1,31.7,118.47a44.06,44.06,0,0,1-6.89,6.32,25.75,25.75,0,0,1-8.8,4.4,12.65,12.65,0,0,1-5.36,0,12.74,12.74,0,0,1-4.78-3.06,16.05,16.05,0,0,1-2.68-4.4q-.19-.38-1-2.49-.19-.57-.57-2.3A61.43,61.43,0,0,1,.12,98.18Q.89,82.49,7.4,61.82A182.91,182.91,0,0,1,13.71,44.4q2.87-7.08,7.46-16.65a185.49,185.49,0,0,1,9-16.27,59.09,59.09,0,0,1,5.74-7.66,13.42,13.42,0,0,1,1.91-1.91A8.63,8.63,0,0,1,40.89.38a4.75,4.75,0,0,1,2.3.19,3.6,3.6,0,0,1,2.3,1.34A6.82,6.82,0,0,1,46.82,5a16.15,16.15,0,0,1,.38,5.17,31.62,31.62,0,0,1-.38,4.78q-.57,4.21-1.72,9.19a156.46,156.46,0,0,1-5.74,17.61A232.83,232.83,0,0,1,23.47,74.83a288.68,288.68,0,0,1-19.9,30.81Z"/><path class="cls-1" d="M97.73,101.63l1,.77a1.09,1.09,0,0,1,.19,1.72,37,37,0,0,1-5.17,5,22.86,22.86,0,0,1-6.51,3.44A17.15,17.15,0,0,1,73,111.77q-3.64-1.53-11.29-8.42l-.19-.19-.19-.19q.19,1.34.38,2.68a40.7,40.7,0,0,1,0,5.55,24.33,24.33,0,0,1-3.06,10.33,15.62,15.62,0,0,1-3.64,4.4,12.25,12.25,0,0,1-5.55,2.87,9.45,9.45,0,0,1-3.25-.19A7.62,7.62,0,0,1,43,127.46a12.44,12.44,0,0,1-4-4.78,19.65,19.65,0,0,1-1.72-11.48,32.06,32.06,0,0,1,3.06-10.53,31,31,0,0,1,3.06-4.78,11.58,11.58,0,0,1,2.3-2.11,8.8,8.8,0,0,1,3.44-1.72l.38.19a2.22,2.22,0,0,1,2.49,0l1.15.57a2,2,0,0,0,.67.38,2.14,2.14,0,0,1,.67.38A17.52,17.52,0,0,1,57,95.31a18.76,18.76,0,0,1,1.91,2.3,35.52,35.52,0,0,1,4.4,4Q70,108.13,73.81,110a15.52,15.52,0,0,0,12.82.57,16.66,16.66,0,0,0,5.55-3.25A28.25,28.25,0,0,0,97,102.58Zm-39.23,9.19q.57-5.55-1.34-9a9.48,9.48,0,0,0-2.87-3.06,4.82,4.82,0,0,0-1.72-1,5.18,5.18,0,0,1-1.15-.38h-.57a6.17,6.17,0,0,0-.38,1.53,14.8,14.8,0,0,1-2.3,3.64,17.28,17.28,0,0,1-3.06,3.06,3,3,0,0,0-1.15.77A24.14,24.14,0,0,0,42.42,112a16,16,0,0,0,1,8.42q1.91,4.21,5.55,4a8,8,0,0,0,3.64-1.53,10.76,10.76,0,0,0,3.06-3.25A18.5,18.5,0,0,0,58.49,110.81ZM47.59,99.33a20.2,20.2,0,0,0-2.3,3.44,6.7,6.7,0,0,0,1.34-1.34A15.52,15.52,0,0,0,48,98.95h-.19Zm0-3.83a2.35,2.35,0,0,0-.57-.38Z"/><path class="cls-1" d="M130.07,97.8A7.05,7.05,0,0,0,128.73,93a6,6,0,0,0-4-2.11,13.47,13.47,0,0,0-5.17,1,28.7,28.7,0,0,0-5.17,2.68,43.67,43.67,0,0,0-8.8,7.08A29.58,29.58,0,0,0,99.26,111a4.77,4.77,0,0,0-.57,2.1c-.13.51-.13.83,0,1h.19c.13.13.38.13.77,0a7.36,7.36,0,0,0,2.3-.57q1.53-.76,5-2.87,1.53-1,5.17-3.45a60.11,60.11,0,0,1,5.55-3.25,21.36,21.36,0,0,1,2.87-1.53,13,13,0,0,1,4-.77,4.17,4.17,0,0,1,2.68,1.53,6.56,6.56,0,0,1,1,2.11,15.2,15.2,0,0,1,.38,3.64,44.13,44.13,0,0,1-.57,6.32,199.07,199.07,0,0,1-5,24.5q-2.68,10.33-7.27,23.73Q106,191.58,96,209.18a100,100,0,0,1-7.08,10.53,41.54,41.54,0,0,1-4.4,4.79,20.6,20.6,0,0,1-5.74,4.21,14.09,14.09,0,0,1-3.64,1,9.28,9.28,0,0,1-4.4-.57,6.73,6.73,0,0,1-3.25-3.25,10.34,10.34,0,0,1-1.34-3.64,27.57,27.57,0,0,1-.38-6.7,42.57,42.57,0,0,1,1-6.51,94.26,94.26,0,0,1,8.61-23.73A130.42,130.42,0,0,1,88.92,164.4,174.72,174.72,0,0,1,124.52,130q8-5.93,20.67-13.78,13.21-8,20.48-13.4a1.28,1.28,0,0,1,1.91.19q.76,1-.38,1.72v.19q-3.64,2.68-20.86,13.21-13,8-20.48,13.59a152,152,0,0,0-34.07,34.83,161.33,161.33,0,0,0-12.63,20.67,93.79,93.79,0,0,0-7.66,22.77q-1.34,6.89-.38,11.29a4.57,4.57,0,0,0,.77,2.11,1.81,1.81,0,0,0,1,1.15,3.9,3.9,0,0,0,1.72,0,4.76,4.76,0,0,0,2.11-.57q3.64-1.72,8-7.46a67.22,67.22,0,0,0,6.51-10,241.45,241.45,0,0,0,10.72-22q4.59-10.53,8.8-22.77,3.63-10.34,7.27-23.35,4.21-15.12,5.74-23.73a36.09,36.09,0,0,0,.57-5.74,14.64,14.64,0,0,0-.19-2.68v-.57a5.79,5.79,0,0,0-2.1.57,21.5,21.5,0,0,0-2.68,1.15q-1.92,1.15-5,3.06a60.41,60.41,0,0,0-5.17,3.64q-4,2.68-5.36,3.44a15.79,15.79,0,0,1-3.64,1.34,6.89,6.89,0,0,1-2.3,0,4.56,4.56,0,0,1-2.58-1.15,4.87,4.87,0,0,1-1.44-2.49,6.19,6.19,0,0,1-.38-2.3,11.37,11.37,0,0,1,.77-3.83A34.87,34.87,0,0,1,101.56,98a42.06,42.06,0,0,1,10.53-7.66,32,32,0,0,1,6.12-2.68q1.72-.38,3.25-.57a9.67,9.67,0,0,1,3.83,0,9.29,9.29,0,0,1,7.27,11.29c-.26.77-.83,1-1.72.77C130.2,99,129.94,98.56,130.07,97.8Z"/><path class="cls-1" d="M222.51,101.63l1,.77a1.09,1.09,0,0,1,.19,1.72,37,37,0,0,1-5.17,5,22.86,22.86,0,0,1-6.51,3.44,17.15,17.15,0,0,1-14.16-.77q-3.64-1.53-11.29-8.42l-.19-.19-.19-.19q.19,1.34.38,2.68a40.7,40.7,0,0,1,0,5.55,24.33,24.33,0,0,1-3.06,10.33,15.62,15.62,0,0,1-3.64,4.4,12.25,12.25,0,0,1-5.55,2.87,9.45,9.45,0,0,1-3.25-.19,7.62,7.62,0,0,1-3.25-1.15,12.44,12.44,0,0,1-4-4.78A19.65,19.65,0,0,1,162,111.2a32.06,32.06,0,0,1,3.06-10.53,31,31,0,0,1,3.06-4.78,11.58,11.58,0,0,1,2.3-2.11,8.8,8.8,0,0,1,3.44-1.72l.38.19a2.22,2.22,0,0,1,2.49,0l1.15.57a2,2,0,0,0,.67.38,2.14,2.14,0,0,1,.67.38,17.52,17.52,0,0,1,2.49,1.72,18.76,18.76,0,0,1,1.91,2.3,35.52,35.52,0,0,1,4.4,4q6.7,6.51,10.53,8.42a15.52,15.52,0,0,0,12.82.57,16.66,16.66,0,0,0,5.55-3.25,28.25,28.25,0,0,0,4.78-4.78Zm-39.23,9.19q.57-5.55-1.34-9a9.48,9.48,0,0,0-2.87-3.06,4.82,4.82,0,0,0-1.72-1,5.18,5.18,0,0,1-1.15-.38h-.57a6.17,6.17,0,0,0-.38,1.53,14.8,14.8,0,0,1-2.3,3.64,17.28,17.28,0,0,1-3.06,3.06,3,3,0,0,0-1.15.77A24.14,24.14,0,0,0,167.2,112a16,16,0,0,0,1,8.42q1.91,4.21,5.55,4a8,8,0,0,0,3.64-1.53,10.76,10.76,0,0,0,3.06-3.25A18.5,18.5,0,0,0,183.28,110.81ZM172.37,99.33a20.2,20.2,0,0,0-2.3,3.44,6.7,6.7,0,0,0,1.34-1.34,15.52,15.52,0,0,0,1.34-2.49h-.19Zm0-3.83a2.35,2.35,0,0,0-.57-.38Z"/><path class="cls-1" d="M413.32,101.82l1,1a1.2,1.2,0,0,1,0,1.91q-4.59,4-6.12,5.17-2.87,2.49-6.32,5a70,70,0,0,1-14.16,7.85,41.91,41.91,0,0,1-16.27,3.25,15.93,15.93,0,0,1-4.21-.57,23.1,23.1,0,0,1-2.3-.77q-.77-.38-2.11-1.15a14.51,14.51,0,0,1-5.93-7.08.17.17,0,0,0-.19-.19l-.19.19q-2.49,2.11-5.17,4.21-5.17,4-10.72,7.66-8,5-12.25,6.12a11.43,11.43,0,0,1-3.64.57,14.6,14.6,0,0,1-4.21-.57,8.18,8.18,0,0,1-3.64-2.68,13.35,13.35,0,0,1-1.91-3.83,21.47,21.47,0,0,1-1-7.08q0-3.06.19-6.89.38-2.87.77-6.32l-.38.38-.19.19a120.83,120.83,0,0,1-9.76,9.19q-3.06,2.49-5.36,4a4.47,4.47,0,0,1-.86.67c-.32.19-.67.42-1.05.67a5.94,5.94,0,0,0-.77.57l-1.53,1-.77.38a3.33,3.33,0,0,1-1,.38,5.06,5.06,0,0,1-5.36,0,6.72,6.72,0,0,1-3.83-6.12c-.13-1-.19-1.59-.19-1.72a33.39,33.39,0,0,1,.19-3.64,41.24,41.24,0,0,1,3.83-13.4,57.48,57.48,0,0,1,7.46-11.48,35.93,35.93,0,0,1,10.72-9,27.44,27.44,0,0,1,3.44-1.15l1.91-.38a18,18,0,0,1,2.49.19A5.89,5.89,0,0,1,317.44,81a8.76,8.76,0,0,1,1.72,3.44c.13,0,.25.26.38.77q1.34-5.36,2.87-10.14,3.83-12.44,8.8-24.88,5.36-13,11.1-23.92,3.44-6.5,6.7-11.48A60.27,60.27,0,0,1,357.43,4a23.44,23.44,0,0,1,2.87-2.49A10.67,10.67,0,0,1,364.52,0,6.41,6.41,0,0,1,366,.19a3.1,3.1,0,0,1,1.34.38,5.42,5.42,0,0,1,2.11,1.34,11,11,0,0,1,2.1,4,21.32,21.32,0,0,1,.77,7.27q-.19,1.92-.38,3.64l-.77,3.25a98.56,98.56,0,0,1-4.59,12.63q-2.87,6.13-5.93,11.87Q354.37,55.89,346.91,67a365,365,0,0,1-25.07,33.11,3.21,3.21,0,0,1-.19.77,3.11,3.11,0,0,0-.19.77q-1.34,6.89-1.91,12.82-.19,3.44-.19,6.12a21.37,21.37,0,0,0,.57,5.74,6.44,6.44,0,0,0,1,2.11,3.46,3.46,0,0,0,1.53,1.15,10.74,10.74,0,0,0,5.17.38,21.4,21.4,0,0,0,5.74-1.53,34.19,34.19,0,0,0,5.93-2.49,97.87,97.87,0,0,0,16.84-12.25,16.62,16.62,0,0,1-.38-6.32,18.24,18.24,0,0,1,2.68-8.42,26.24,26.24,0,0,1,5.74-6.7A22.52,22.52,0,0,1,372,88a6.69,6.69,0,0,1,2.68-.19,3.81,3.81,0,0,1,1.72.38,10.33,10.33,0,0,1,1.53,1,7,7,0,0,1,1.53,3.06,6.7,6.7,0,0,1-.19,2.68,10.85,10.85,0,0,1-2.11,4.4,34.48,34.48,0,0,1-3.06,3.06q-2.11,1.92-6.32,5.17-2.68,2.11-6.32,4.59l-.38.38a6.66,6.66,0,0,0,.57,1.91,13.08,13.08,0,0,0,4,5,4.9,4.9,0,0,0,1.34.77,4.16,4.16,0,0,0,1.34.57,13.9,13.9,0,0,0,3.64.77A29.71,29.71,0,0,0,386.72,120q13.39-4.59,25.65-17.23Zm-102.2,3.25q2.49-2.3,5-4.78.57-3.25,1.34-7.08V91.48a30.83,30.83,0,0,0-1.53-5.93,10,10,0,0,0-1.34-2.3,3,3,0,0,0-1.72-1.15h-.77c-.51.13-1,.26-1.34.38q-1,.39-2.49,1.15a30.32,30.32,0,0,0-9,8,57.36,57.36,0,0,0-6.32,10.72,36.5,36.5,0,0,0-3.45,11.67,20.22,20.22,0,0,0-.19,2.87l.19,1.34a2.12,2.12,0,0,0,.19,1,1.25,1.25,0,0,0,.67,1,1,1,0,0,0,.86,0l.57-.19.57-.38a1.68,1.68,0,0,0,.67-.29,3.76,3.76,0,0,0,.67-.48,8.12,8.12,0,0,1,1.15-.77c.64-.38,1.15-.7,1.53-1q2.68-1.72,5.17-3.64Q305.76,110,311.12,105.07Zm36-76.36a310.74,310.74,0,0,0-19.33,48q-2.3,7.66-4.21,15.69,3.06-3.45,5.55-6.32A230,230,0,0,0,344.8,65.45a169.78,169.78,0,0,0,13-22.39q2.87-5.93,5.17-11.87a85.15,85.15,0,0,0,3.64-12.25l.57-3.06a20.6,20.6,0,0,0,.19-2.87,14.34,14.34,0,0,0-.57-5.55,4.47,4.47,0,0,0-1-1.91.79.79,0,0,0-.57-.19.57.57,0,0,0-.38-.19,2.9,2.9,0,0,0-1.72.77,11.33,11.33,0,0,0-2.1,1.72,61.87,61.87,0,0,0-7.66,10Q350.35,22.39,347.1,28.71Zm17.42,69.66-1.72,3a16.18,16.18,0,0,0-2.1,6.41v1.72q9.57-8.61,10.72-9.76a28.08,28.08,0,0,0,2.3-2.87A6.69,6.69,0,0,0,375,94a1.25,1.25,0,0,0,0-1,.79.79,0,0,0-.19-.57.56.56,0,0,0-.38-.19,5.69,5.69,0,0,0-1.34.19,19.28,19.28,0,0,0-5.93,3.44Z"/><path class="cls-1" d="M533.7,102.77a1.2,1.2,0,0,1,0,1.91q-4.59,4-6.12,5.17a73.89,73.89,0,0,1-6.32,4.78,62.5,62.5,0,0,1-13.78,7.85,39.7,39.7,0,0,1-16.08,3.44,23.27,23.27,0,0,1-4.21-.38q-1.34-.38-2.11-.57a9.58,9.58,0,0,1-2.3-1.15,14.74,14.74,0,0,1-6.12-6.7,13.94,13.94,0,0,1-1.53-4.4q-.19-2.1-.19-4.4a21.19,21.19,0,0,1,2.3-8.61A24.76,24.76,0,0,1,482.6,93a22.35,22.35,0,0,1,7.46-4.59q1.34-.38,2.3-.57a8.82,8.82,0,0,1,3.25.19,6.17,6.17,0,0,1,2.49,2.3,6.08,6.08,0,0,1,.77,3.06,6.35,6.35,0,0,1-.57,2.49q-.57,1.34-1,2.1a10.86,10.86,0,0,1-2.87,3.45,17,17,0,0,1-7.66,4,21.68,21.68,0,0,1-6.51.57,17.55,17.55,0,0,0-.19,2.49,10.39,10.39,0,0,0,.19,3.44,7.57,7.57,0,0,0,1,2.87,11.34,11.34,0,0,0,4.21,4.78q1.91,1.53,6.32,2.1A35.12,35.12,0,0,0,506.52,120q13.21-4.78,25.26-17.23A1.2,1.2,0,0,1,533.7,102.77Zm-41.91-10a18.51,18.51,0,0,0-10,9.19,2.41,2.41,0,0,0-.57,1.15,24.52,24.52,0,0,0,4.59-.77,13.36,13.36,0,0,0,5.93-3.64,10.21,10.21,0,0,0,1.91-2.68c.13-.38.32-.89.57-1.53a5.69,5.69,0,0,0,.19-1.34,1.13,1.13,0,0,0-.57-1,3.2,3.2,0,0,0-.77.19A3.09,3.09,0,0,0,491.79,92.82Z"/><path class="cls-1" d="M625.56,101.63l1.15.57a1.13,1.13,0,0,1,.57,1.72h-.19q-6.51,10.91-14.54,15.69A21.78,21.78,0,0,1,602,123.06a24.9,24.9,0,0,1-5.93-1,16,16,0,0,1-5.17-3.25q-2.3-2.1-5.93-9-1.34-2.1-2.3-2.11a4.51,4.51,0,0,0-1.91.57,8.17,8.17,0,0,0-2.11,1.34,66.75,66.75,0,0,0-7.46,7.27,9.19,9.19,0,0,1-2.11,1.91,3.38,3.38,0,0,1-1.53,1c-.51.13-1,.26-1.34.38a3.69,3.69,0,0,1-1.91-.57,5.27,5.27,0,0,1-1.53-2.11,6.58,6.58,0,0,1-.57-1.72q-.19-1.15-.38-2.87a32,32,0,0,0-.19-4.78,4.32,4.32,0,0,0-.57-1.53,1.86,1.86,0,0,0-1-.77l-.19-.19h-1q-1,.19-2.3.57a29.67,29.67,0,0,0-4.4,2.3,64.59,64.59,0,0,0-8.42,6.12q-1.92,1.72-8,6.89-2.68,2.3-4.21,3.44a4.9,4.9,0,0,1-1.34.77,1.09,1.09,0,0,1-.77.38,3.36,3.36,0,0,1-1.53.38,2.9,2.9,0,0,1-1.53-.77l-.38-.38-.19-.19a1.47,1.47,0,0,0-.19-.57,4.29,4.29,0,0,1-.19-1.34,9,9,0,0,1,.19-1.72,50.4,50.4,0,0,1,1.72-5.36q1.15-2.87,2.11-5,1.53-3.45,3.64-7.46a2.33,2.33,0,0,1-.38-3.25,10,10,0,0,0,1.53-2.11l1.53-2.3q1.72-2.1,3.25-4.21t3.64-.38a2.16,2.16,0,0,1,.77,2.87,89.18,89.18,0,0,1-4.4,9.76l-4.78,9.38a4.28,4.28,0,0,0-.57,1.05,6.93,6.93,0,0,1-.67,1.24,5.27,5.27,0,0,0-.57,1.05c-.19.45-.35.86-.48,1.24q-1,1.92-1.34,2.87,1.15-.76,3.06-2.1,2.68-1.72,8.42-6.32l8.42-6.32a46.18,46.18,0,0,1,4.59-3.25,13.13,13.13,0,0,1,2.68-1.34,4.71,4.71,0,0,1,1.72-.38h1.15a2.29,2.29,0,0,0,1,.38,5.41,5.41,0,0,1,3.25,2.1,8.84,8.84,0,0,1,1.72,3.25,33.67,33.67,0,0,1,.38,5.74v2.87a17.69,17.69,0,0,0,2-1.24,32.35,32.35,0,0,0,2.58-2q1.34-1.15,3-2.58t2.58-2.2a17.43,17.43,0,0,1,2.3-1.72,6.43,6.43,0,0,1,2.87-1.34,3.33,3.33,0,0,1,1.91-.19,6,6,0,0,1,1.91.77,9.58,9.58,0,0,1,2.49,2.1,47.8,47.8,0,0,1,3.25,4.59,18.82,18.82,0,0,0,2.68,3.83,8.67,8.67,0,0,0,3.25,2.87,9.56,9.56,0,0,0,4.4,1.53q4,.57,9.19-2.3,8.23-4.59,13.59-14.93Zm-59.14,14.16h0Z"/><path class="cls-1" d="M693.12,101.63l.76,1q.76,1-.38,1.91-13.21,10.15-22.39,10.14-6.13,0-14-6.32a12.42,12.42,0,0,1-3.64,1.34,16.8,16.8,0,0,1-9.38-.77,21,21,0,0,1-2.87-1.53q-4,5.74-8.61,13.59-4.21,7.28-7.85,14.55l-3.64,7.27q-2.48,5.55-3.44,7.46-1.15,2.49-2.49,5.74-1.72,5-3.44,9.57a.17.17,0,0,1-.19.19,2.27,2.27,0,0,1-3.45,1.15,2.2,2.2,0,0,1-1.15-3.06v-.19q5.93-15.88,13.21-36.75,3.64-10.72,6.12-18.56a14.65,14.65,0,0,0,1-2.68h-.19a2.2,2.2,0,0,1-1.34-3.25v-.19q.76-1.53,1.91-3.45.76-1.34,1.53-2.87a65.36,65.36,0,0,0,2.49-6.51v-.19a2.51,2.51,0,0,1,3.45-1.53,2.33,2.33,0,0,1,1.53,2.87q-.19,1.53-1,5.17-.77,2.49-1.53,4.78-1.15,4-2.87,9.38-2.49,7.85-6.32,18.56v.38a271.75,271.75,0,0,1,12.82-24.11c-.51-.51-.77-.83-.77-1a2.06,2.06,0,0,1-.38-.57,1.07,1.07,0,0,1,.77-1.53,14.24,14.24,0,0,1,3.25-1.15,43.15,43.15,0,0,1,8-9,20.53,20.53,0,0,1,3.83-2.68,12.19,12.19,0,0,1,5.17-1.15,6.82,6.82,0,0,1,3.06.77,7.27,7.27,0,0,1,2.3,2.1,9.94,9.94,0,0,1,2.11,5.17,12.5,12.5,0,0,1-.77,5.17q-.57,1.15-1.15,2.2a8.83,8.83,0,0,1-1.53,2q-1,1-2.11,1.91a28.56,28.56,0,0,0,5.46,3.64,17.52,17.52,0,0,0,6.22,1.44,18.6,18.6,0,0,0,9-2.1A60,60,0,0,0,692,102.39Zm-47.66,3.83a12.6,12.6,0,0,0,6.89,0,.78.78,0,0,1,.57-.19,13.77,13.77,0,0,0-8-2.87q-1,1.34-1.53,2.3C644.12,104.95,644.82,105.2,645.46,105.45Zm6.32-10.14a28.1,28.1,0,0,0-4.78,4.78,20.2,20.2,0,0,1,8.61,3.83,10.35,10.35,0,0,0,2.49-2.1,5.13,5.13,0,0,0,1-1.34,4.26,4.26,0,0,0,.57-1.34,6.76,6.76,0,0,0,.38-3.06,3.82,3.82,0,0,0-1-2.49,2.22,2.22,0,0,0-1.53-.77Q655.22,92.63,651.78,95.31Z"/><path class="cls-1" d="M745.56,102l1.05.67q1.05.67.48,1.63v.19A91.68,91.68,0,0,1,738.86,115a90.85,90.85,0,0,1-9.38,9.19,90.05,90.05,0,0,1-10.72,8,57.7,57.7,0,0,1-12.25,5.55,21.27,21.27,0,0,1-7.08,1,7.71,7.71,0,0,1-3.83-1,5.74,5.74,0,0,1-1.91-1.34l-.77-.76a5.28,5.28,0,0,1-.29-.67,1.17,1.17,0,0,0-.29-.48,8.33,8.33,0,0,1-.38-4.4,11.88,11.88,0,0,1,1-3.64,39.43,39.43,0,0,1,3.06-6.32q1.15-1.91,3.44-5.65t3.45-5.45a25.44,25.44,0,0,1,1.34-2.68,23.7,23.7,0,0,0,.77-2.3h-1.53a5.72,5.72,0,0,0-1.34.19,11.41,11.41,0,0,1-1.72.19l-3.44.38a31.78,31.78,0,0,1-7.27-.77,12.3,12.3,0,0,1-3.83-1.34,8.66,8.66,0,0,1-3.45-2.87,7.23,7.23,0,0,1-1.53-5,17,17,0,0,1,.77-3.83,36.91,36.91,0,0,1,7.27-12.25,62.27,62.27,0,0,1,10.33-9q1.72-1.15,3.06-1.91l1.91-.77a18.11,18.11,0,0,1,2.1-.57,9.8,9.8,0,0,1,4.4.57,7.49,7.49,0,0,1,3.64,3.25,7.83,7.83,0,0,1,.77,4.21,14.15,14.15,0,0,1-1,3.83,38.13,38.13,0,0,1-3.83,5.93q-1.72,2.11-13,14.74a16.9,16.9,0,0,1,2.3-.19,7.56,7.56,0,0,1,1.53-.29,19.15,19.15,0,0,0,1.91-.29h2.11a6.39,6.39,0,0,1,2.49.77,4.64,4.64,0,0,1,2.68,2.68,8,8,0,0,1,.19,3.06,28.46,28.46,0,0,1-1.34,3.83,19.56,19.56,0,0,1-1.72,3.06q-1.15,2.11-3.54,5.74t-3.54,5.36a60.67,60.67,0,0,0-2.87,5.36,10.79,10.79,0,0,0-1.15,4.78q.38,1.91,3.44,2.3a13.54,13.54,0,0,0,5.93-.19,43.88,43.88,0,0,0,11.87-5A70.47,70.47,0,0,0,728,122.68a96.67,96.67,0,0,0,9.28-9.19A84.75,84.75,0,0,0,744.79,103ZM687,96.46q1,1.34,4,2.1a11.9,11.9,0,0,0,3.25.38q3.25-3.25,5.74-6.12a110.5,110.5,0,0,0,8.42-10,14.76,14.76,0,0,0,2.68-5.55q.76-3.06-.57-4.59-1.15-1.34-3.64-1a3.19,3.19,0,0,0-1,.19,4.68,4.68,0,0,1-1.15.57c-.77.51-1.6,1.09-2.49,1.72a50.51,50.51,0,0,0-9.19,8.23,29.17,29.17,0,0,0-5.93,10.33,10.33,10.33,0,0,0-.57,2.49A2.06,2.06,0,0,0,687,96.46Z"/><path class="cls-1" d="M801.63,102.77a1.2,1.2,0,0,1,0,1.91q-4.59,4-6.12,5.17a73.8,73.8,0,0,1-6.32,4.78,62.52,62.52,0,0,1-13.78,7.85,39.71,39.71,0,0,1-16.08,3.44,23.27,23.27,0,0,1-4.21-.38L753,125a9.58,9.58,0,0,1-2.3-1.15,14.74,14.74,0,0,1-6.12-6.7,14,14,0,0,1-1.53-4.4c-.12-1.4-.19-2.87-.19-4.4a21.2,21.2,0,0,1,2.3-8.61,24.76,24.76,0,0,1,5.36-6.7A22.36,22.36,0,0,1,758,88.42q1.34-.38,2.3-.57a8.83,8.83,0,0,1,3.25.19,6.18,6.18,0,0,1,2.49,2.3,6.09,6.09,0,0,1,.77,3.06,6.35,6.35,0,0,1-.57,2.49q-.57,1.34-1,2.1a10.86,10.86,0,0,1-2.87,3.45,17,17,0,0,1-7.66,4,21.68,21.68,0,0,1-6.51.57,17.48,17.48,0,0,0-.19,2.49,10.35,10.35,0,0,0,.19,3.44,7.55,7.55,0,0,0,1,2.87,11.34,11.34,0,0,0,4.21,4.78q1.91,1.53,6.32,2.1A35.11,35.11,0,0,0,774.45,120q13.21-4.78,25.26-17.23A1.2,1.2,0,0,1,801.63,102.77Zm-41.91-10a18.51,18.51,0,0,0-10,9.19,2.4,2.4,0,0,0-.57,1.15,24.52,24.52,0,0,0,4.59-.77,13.35,13.35,0,0,0,5.93-3.64,10.2,10.2,0,0,0,1.91-2.68c.13-.38.32-.89.57-1.53a5.69,5.69,0,0,0,.19-1.34,1.13,1.13,0,0,0-.57-1,3.21,3.21,0,0,0-.77.19A3.09,3.09,0,0,0,759.72,92.82Z"/><path class="cls-1" d="M842.59,102.39l1.05.77a1.24,1.24,0,0,1,.29,1.91h-.19a52.39,52.39,0,0,1-6.89,7.08,34.87,34.87,0,0,1-8.23,5.36,31.44,31.44,0,0,1-9.57,2.68q-1.15.19-9.76.77h-.38a12.78,12.78,0,0,1-.57,5,26.26,26.26,0,0,1-1.34,2.68,18.23,18.23,0,0,1-1.91,2.3,9.57,9.57,0,0,1-2.87,1.72,5.45,5.45,0,0,1-4,0,4,4,0,0,1-1.91-1.34,10.7,10.7,0,0,1-1-2.1,8.44,8.44,0,0,1,.38-3.45,19.74,19.74,0,0,1,1.43-2.39,11.08,11.08,0,0,1,2-2.2,9.4,9.4,0,0,1,4.21-2.1q-.19-1.34-.57-2.87-.39-1.15-1.24-4.4t-1.34-5.07q-.48-1.82-1-4.69a22.52,22.52,0,0,1-.29-5.36,23.8,23.8,0,0,1,.57-5.36,32.1,32.1,0,0,1,1.72-5,22.66,22.66,0,0,1,6.12-8.8,16.36,16.36,0,0,1,5-2.87,2.13,2.13,0,0,0,1-.19h1a4,4,0,0,1,2.11.57,5.49,5.49,0,0,1,2.3,3.06,6.23,6.23,0,0,1,0,3.06,14.78,14.78,0,0,1-.77,2.68,25.61,25.61,0,0,1-2.3,4.59,115.27,115.27,0,0,1-10.72,13,29.28,29.28,0,0,0,.76,4.21,21.72,21.72,0,0,0,.57,2.2q.38,1.25.67,2.3t.57,2.39a14.12,14.12,0,0,0,.67,2.3q.38,2.11.57,3.64l.57-.19a71.06,71.06,0,0,0,9.38-.38,30,30,0,0,0,9-2.39,33.41,33.41,0,0,0,7.85-5.07,63.83,63.83,0,0,0,6.32-6.89Zm-39.9,23.54.48-.77.29-.86a7.08,7.08,0,0,0,.29-2.2,5.17,5.17,0,0,0-2.3,1.53q-.57.77-1.15,1.63a5.14,5.14,0,0,0-.77,1.72,2.75,2.75,0,0,0,0,1.44h.38a1.44,1.44,0,0,0,.57-.19,5.42,5.42,0,0,0,1.15-1A7.53,7.53,0,0,0,802.68,125.93Zm2.39-33.3a14.64,14.64,0,0,0-.57,4.21v1.53a55.68,55.68,0,0,0,9-11.29,16.35,16.35,0,0,0,1.91-4A13,13,0,0,0,815.6,81a3.13,3.13,0,0,0-.38-1.72q-.19-.57-.57-.57h-.38a.55.55,0,0,1-.38.19,17.47,17.47,0,0,0-3.06,2.49,19,19,0,0,0-4.59,7.08A23,23,0,0,0,805.08,92.63Z"/><path class="cls-1" d="M907.66,102.58a1.21,1.21,0,0,1,.38,1.72,45.83,45.83,0,0,1-11.1,11.1q-7.66,5.17-15.12,5.36a11.27,11.27,0,0,1-4.21-.38,12.82,12.82,0,0,1-4-1.91,12,12,0,0,1-5.36-6.89,22.44,22.44,0,0,1-1-8q-8.81,9.76-10.33,11.29a55.38,55.38,0,0,1-4.4,4,20.28,20.28,0,0,1-5.93,3.06,6.51,6.51,0,0,1-3.83,0,7,7,0,0,1-3.64-2.49,10.29,10.29,0,0,1-1.34-3.64,13,13,0,0,1-.19-2.11,8.19,8.19,0,0,0,.19-1.53A27.08,27.08,0,0,1,843,100.48a43.51,43.51,0,0,1,8.8-8.61,40.87,40.87,0,0,1,10.72-5.93,19.67,19.67,0,0,1,6.12-1.53,6.3,6.3,0,0,1,3.64.57A3.76,3.76,0,0,1,874,86.7a4.5,4.5,0,0,1,.19,2.3q-.19,1.15-1.53,1-1,0-1.15-1.15v-.19a.79.79,0,0,0-.19-.57c0-.13-.13-.25-.38-.38a4.72,4.72,0,0,0-1.91,0,17.79,17.79,0,0,0-5,1.91,50,50,0,0,0-9.38,5.93,49.39,49.39,0,0,0-7.46,8,23.25,23.25,0,0,0-4.4,9.38,9.86,9.86,0,0,1-.19,1.15v1a3.76,3.76,0,0,0,.38,1.72,4.83,4.83,0,0,0,1.15,1.15,7,7,0,0,0,1.72.19,15.49,15.49,0,0,0,4.78-1.91,31.92,31.92,0,0,0,4.4-3.44A56.17,56.17,0,0,0,868.8,94.35a2.3,2.3,0,0,1,3.64-.57,2.39,2.39,0,0,1,1,2.68,33.8,33.8,0,0,0-1.34,7.08,18.72,18.72,0,0,0,.38,6.7,7.71,7.71,0,0,0,3.44,4.78,10,10,0,0,0,5.93,1.91q6.31,0,13.4-4.21a48.71,48.71,0,0,0,10.72-10A1.08,1.08,0,0,1,907.66,102.58Z"/></g></g></svg>